# xmcd
#
# Track frame offsets: 
#        150
#        17833
#        34450
#        56339
#        73686
#        92622
#        110026
#        129711
#        145342
#        163145
#        183589
#        202188
#        225733
#        244121
#        265204
#
# Disc length: 3749 seconds
#
# Revision: 1
# Processed by: cddbd v1.5.2PL0 Copyright (c) Steve Scherf et al.
# Submitted via: ExactAudioCopyFreeDBPlugin 1.0
#
DISCID=e40ea30f
DTITLE=Various Artist - Nashville Outlaws: A Tribute to Mötley Crüe
DYEAR=2014
DGENRE=Country
TTITLE0=Rascal Flats - Kickstart My Heart
TTITLE1=Florida Georgia Line - If I Die Tomorrow
TTITLE2=Leann Rimes - Smokin' in the Boys Room
TTITLE3=Justin Moore featuring Vince Neil - Home Sweet Home
TTITLE4=Cassadee Pope featuring Robin Zander - The Animal in Me
TTITLE5=Aaron Lewis - Afraid
TTITLE6=Big and Rich - Same Ol' Situation (S.O.S.)
TTITLE7=Clare Bowen with Sam Palladio - Without You
TTITLE8=Eli Young Band - Don't Go Away Mad (Just Go Away)
TTITLE9=Lauren Jenkins - Looks That Kill
TTITLE10=The Cadillac Three - Live Wire
TTITLE11=The Mavericks - Dr. Feelgood
TTITLE12=Brantley Gilbert - Girls, Girls, Girls
TTITLE13=Gretchen Wilson - Wild Side
TTITLE14=Darius Rucker - Time for Change
EXTD=
EXTT0=
EXTT1=
EXTT2=
EXTT3=
EXTT4=
EXTT5=
EXTT6=
EXTT7=
EXTT8=
EXTT9=
EXTT10=
EXTT11=
EXTT12=
EXTT13=
EXTT14=
PLAYORDER=
